<svg id="svg" version="1.1" xmlns="http://www.w3.org/2000/svg" xmlns:xlink="http://www.w3.org/1999/xlink" width="400" height="400" viewBox="0, 0, 400,400"><g id="svgg"><path id="path0" d="M147.277 48.033 C 142.755 50.686,141.200 56.620,141.200 71.219 C 141.200 73.606,141.040 75.200,140.800 75.200 C 140.560 75.200,140.400 76.800,140.400 79.200 L 140.400 83.200 132.200 83.200 C 127.000 83.200,124.000 83.346,124.000 83.600 C 124.000 83.843,122.200 84.000,119.400 84.000 C 116.600 84.000,114.800 84.157,114.800 84.400 C 114.800 84.629,113.600 84.800,112.000 84.800 C 110.400 84.800,109.200 84.971,109.200 85.200 C 109.200 85.422,108.133 85.600,106.800 85.600 C 105.467 85.600,104.400 85.778,104.400 86.000 C 104.400 86.220,103.500 86.400,102.400 86.400 C 101.300 86.400,100.400 86.580,100.400 86.800 C 100.400 87.020,99.680 87.200,98.800 87.200 C 97.920 87.200,97.200 87.380,97.200 87.600 C 97.200 87.820,96.581 88.000,95.824 88.000 C 95.067 88.000,94.336 88.180,94.200 88.400 C 94.064 88.620,93.524 88.800,93.000 88.800 C 92.476 88.800,91.936 88.980,91.800 89.200 C 91.664 89.420,90.933 89.600,90.176 89.600 C 89.419 89.600,88.800 89.780,88.800 90.000 C 88.800 90.220,88.260 90.400,87.600 90.400 C 86.940 90.400,86.400 90.580,86.400 90.800 C 86.400 91.020,85.860 91.200,85.200 91.200 C 84.540 91.200,84.000 91.380,84.000 91.600 C 84.000 91.820,83.736 92.000,83.414 92.000 C 82.690 92.000,79.249 93.086,78.305 93.613 C 77.923 93.826,77.338 94.000,77.005 94.000 C 76.672 94.000,76.400 94.180,76.400 94.400 C 76.400 94.620,76.040 94.800,75.600 94.800 C 75.160 94.800,74.800 94.980,74.800 95.200 C 74.800 95.420,74.440 95.600,74.000 95.600 C 73.560 95.600,73.200 95.780,73.200 96.000 C 73.200 96.220,72.840 96.400,72.400 96.400 C 71.960 96.400,71.600 96.580,71.600 96.800 C 71.600 97.020,71.240 97.200,70.800 97.200 C 70.360 97.200,70.000 97.380,70.000 97.600 C 70.000 97.820,69.766 98.000,69.480 98.000 C 68.744 98.000,66.807 98.941,66.803 99.300 C 66.801 99.465,66.440 99.600,66.000 99.600 C 65.560 99.600,65.200 99.780,65.200 100.000 C 65.200 100.220,64.840 100.400,64.400 100.400 C 63.960 100.400,63.600 100.580,63.600 100.800 C 63.600 101.020,63.364 101.200,63.075 101.200 C 62.787 101.200,62.202 101.515,61.775 101.900 C 61.349 102.285,60.505 102.855,59.900 103.168 C 59.295 103.480,58.800 103.885,58.800 104.068 C 58.800 104.250,58.530 104.400,58.200 104.400 C 57.870 104.400,57.600 104.580,57.600 104.800 C 57.600 105.020,57.312 105.200,56.960 105.200 C 56.609 105.200,55.817 105.740,55.200 106.400 C 54.583 107.060,53.791 107.600,53.440 107.600 C 53.088 107.600,52.800 107.739,52.800 107.909 C 52.800 108.079,52.163 108.561,51.385 108.980 C 50.607 109.399,49.463 110.226,48.844 110.818 C 48.225 111.410,47.521 111.963,47.279 112.047 C 45.654 112.613,29.971 128.292,28.681 130.640 C 28.452 131.058,27.972 131.670,27.615 132.000 C 27.258 132.330,26.433 133.455,25.783 134.499 C 25.132 135.544,24.465 136.399,24.300 136.399 C 24.135 136.400,24.000 136.694,24.000 137.053 C 24.000 137.412,23.684 137.997,23.297 138.353 C 22.911 138.709,22.340 139.495,22.030 140.100 C 21.719 140.705,21.315 141.200,21.132 141.200 C 20.950 141.200,20.800 141.388,20.800 141.617 C 20.800 141.846,20.440 142.420,20.000 142.892 C 19.560 143.364,19.200 143.987,19.200 144.275 C 19.200 144.564,19.020 144.800,18.800 144.800 C 18.580 144.800,18.400 145.036,18.400 145.325 C 18.400 145.613,18.040 146.236,17.600 146.708 C 17.160 147.180,16.800 147.844,16.800 148.183 C 16.800 148.522,16.620 148.800,16.400 148.800 C 16.180 148.800,16.000 149.160,16.000 149.600 C 16.000 150.040,15.820 150.400,15.600 150.400 C 15.380 150.400,15.200 150.760,15.200 151.200 C 15.200 151.640,15.020 152.000,14.800 152.000 C 14.580 152.000,14.400 152.360,14.400 152.800 C 14.400 153.240,14.220 153.600,14.000 153.600 C 13.780 153.600,13.600 153.960,13.600 154.400 C 13.600 154.840,13.420 155.200,13.200 155.200 C 12.980 155.200,12.800 155.560,12.800 156.000 C 12.800 156.440,12.620 156.800,12.400 156.800 C 12.180 156.800,12.000 157.160,12.000 157.600 C 12.000 158.040,11.864 158.400,11.698 158.400 C 11.531 158.400,11.156 158.985,10.864 159.700 C 10.572 160.415,10.186 161.360,10.007 161.800 C 9.828 162.240,9.393 163.257,9.041 164.060 C 8.688 164.864,8.400 165.989,8.400 166.560 C 8.400 167.132,8.220 167.600,8.000 167.600 C 7.780 167.600,7.600 167.949,7.600 168.376 C 7.600 168.803,7.420 169.264,7.200 169.400 C 6.980 169.536,6.800 170.076,6.800 170.600 C 6.800 171.124,6.620 171.664,6.400 171.800 C 6.180 171.936,6.000 172.476,6.000 173.000 C 6.000 173.524,5.820 174.064,5.600 174.200 C 5.380 174.336,5.200 174.977,5.200 175.624 C 5.200 176.271,5.020 176.800,4.800 176.800 C 4.580 176.800,4.400 177.430,4.400 178.200 C 4.400 178.970,4.220 179.600,4.000 179.600 C 3.780 179.600,3.600 180.230,3.600 181.000 C 3.600 181.770,3.420 182.400,3.200 182.400 C 2.980 182.400,2.800 183.300,2.800 184.400 C 2.800 185.500,2.620 186.400,2.400 186.400 C 2.180 186.400,2.000 187.300,2.000 188.400 C 2.000 189.500,1.820 190.400,1.600 190.400 C 1.380 190.400,1.200 191.285,1.200 192.367 C 1.200 193.584,1.010 194.397,0.700 194.500 C -0.029 194.743,-0.029 235.331,0.700 236.060 C 0.975 236.335,1.200 237.514,1.200 238.680 C 1.200 239.846,1.380 240.800,1.600 240.800 C 1.820 240.800,2.000 241.599,2.000 242.576 C 2.000 243.553,2.180 244.464,2.400 244.600 C 2.620 244.736,2.800 245.557,2.800 246.424 C 2.800 247.291,2.980 248.000,3.200 248.000 C 3.420 248.000,3.600 248.619,3.600 249.376 C 3.600 250.133,3.780 250.864,4.000 251.000 C 4.220 251.136,4.400 251.777,4.400 252.424 C 4.400 253.071,4.580 253.600,4.800 253.600 C 5.020 253.600,5.200 254.140,5.200 254.800 C 5.200 255.460,5.380 256.000,5.600 256.000 C 5.820 256.000,6.000 256.540,6.000 257.200 C 6.000 257.860,6.180 258.400,6.400 258.400 C 6.620 258.400,6.800 258.850,6.800 259.400 C 6.800 259.950,6.980 260.400,7.200 260.400 C 7.420 260.400,7.600 260.940,7.600 261.600 C 7.600 262.260,7.756 262.800,7.948 262.800 C 8.139 262.800,8.392 263.396,8.510 264.125 C 8.702 265.306,9.819 268.179,10.833 270.095 C 11.035 270.477,11.200 271.062,11.200 271.395 C 11.200 271.728,11.380 272.000,11.600 272.000 C 11.820 272.000,12.000 272.360,12.000 272.800 C 12.000 273.240,12.180 273.600,12.400 273.600 C 12.620 273.600,12.800 273.960,12.800 274.400 C 12.800 274.840,12.935 275.203,13.100 275.206 C 13.265 275.210,13.840 276.110,14.379 277.206 C 14.917 278.303,15.502 279.200,15.679 279.200 C 15.855 279.200,16.000 279.560,16.000 280.000 C 16.000 280.440,16.180 280.800,16.400 280.800 C 16.620 280.800,16.800 281.120,16.800 281.512 C 16.800 281.903,17.160 282.483,17.600 282.800 C 18.040 283.117,18.400 283.697,18.400 284.088 C 18.400 284.480,18.580 284.800,18.800 284.800 C 19.020 284.800,19.200 285.036,19.200 285.325 C 19.200 285.613,19.560 286.236,20.000 286.708 C 20.440 287.180,20.800 287.754,20.800 287.983 C 20.800 288.212,20.980 288.400,21.200 288.400 C 21.420 288.400,21.600 288.578,21.600 288.795 C 21.600 289.194,22.323 290.170,23.800 291.764 C 24.240 292.240,24.947 293.252,25.372 294.014 C 25.796 294.776,26.443 295.670,26.809 296.000 C 27.175 296.330,27.694 297.014,27.962 297.520 C 28.926 299.340,40.565 311.200,41.387 311.200 C 41.724 311.200,42.000 311.381,42.000 311.602 C 42.000 312.096,45.942 316.000,46.440 316.000 C 46.638 316.000,47.541 316.720,48.448 317.600 C 49.355 318.480,50.256 319.200,50.452 319.200 C 50.647 319.200,51.372 319.740,52.063 320.400 C 52.754 321.060,53.562 321.600,53.859 321.600 C 54.157 321.600,54.400 321.750,54.400 321.932 C 54.400 322.115,54.895 322.520,55.500 322.832 C 56.105 323.145,56.903 323.670,57.273 324.000 C 57.643 324.330,58.633 324.960,59.473 325.400 C 60.313 325.840,61.349 326.515,61.775 326.900 C 62.202 327.285,62.787 327.600,63.075 327.600 C 63.364 327.600,63.600 327.780,63.600 328.000 C 63.600 328.220,63.920 328.400,64.312 328.400 C 64.703 328.400,65.283 328.760,65.600 329.200 C 65.917 329.640,66.497 330.000,66.888 330.000 C 67.280 330.000,67.600 330.180,67.600 330.400 C 67.600 330.620,67.960 330.800,68.400 330.800 C 68.840 330.800,69.200 330.980,69.200 331.200 C 69.200 331.420,69.560 331.600,70.000 331.600 C 70.440 331.600,70.800 331.780,70.800 332.000 C 70.800 332.220,71.160 332.400,71.600 332.400 C 72.040 332.400,72.400 332.580,72.400 332.800 C 72.400 333.020,72.760 333.200,73.200 333.200 C 73.640 333.200,74.000 333.347,74.000 333.526 C 74.000 333.935,77.081 335.600,77.838 335.600 C 78.147 335.600,78.400 335.780,78.400 336.000 C 78.400 336.220,78.760 336.400,79.200 336.400 C 79.640 336.400,80.000 336.580,80.000 336.800 C 80.000 337.020,80.360 337.200,80.800 337.200 C 81.240 337.200,81.600 337.380,81.600 337.600 C 81.600 337.820,81.949 338.000,82.376 338.000 C 82.803 338.000,83.264 338.180,83.400 338.400 C 83.536 338.620,84.087 338.800,84.624 338.800 C 85.161 338.800,85.600 338.947,85.600 339.128 C 85.600 339.308,86.500 339.700,87.600 340.000 C 88.700 340.300,89.600 340.681,89.600 340.848 C 89.600 341.015,90.412 341.273,91.405 341.422 C 92.398 341.571,93.308 341.852,93.429 342.046 C 93.549 342.241,94.087 342.400,94.624 342.400 C 95.161 342.400,95.600 342.580,95.600 342.800 C 95.600 343.020,96.140 343.200,96.800 343.200 C 97.460 343.200,98.000 343.380,98.000 343.600 C 98.000 343.820,98.540 344.000,99.200 344.000 C 99.860 344.000,100.400 344.180,100.400 344.400 C 100.400 344.620,101.019 344.800,101.776 344.800 C 102.533 344.800,103.264 344.980,103.400 345.200 C 103.536 345.420,104.177 345.600,104.824 345.600 C 105.471 345.600,106.000 345.780,106.000 346.000 C 106.000 346.220,106.720 346.400,107.600 346.400 C 108.480 346.400,109.200 346.580,109.200 346.800 C 109.200 347.020,109.830 347.200,110.600 347.200 C 111.370 347.200,112.000 347.380,112.000 347.600 C 112.000 347.820,112.720 348.000,113.600 348.000 C 114.480 348.000,115.200 348.180,115.200 348.400 C 115.200 348.620,116.100 348.800,117.200 348.800 C 118.300 348.800,119.200 348.980,119.200 349.200 C 119.200 349.420,120.100 349.600,121.200 349.600 C 122.300 349.600,123.200 349.780,123.200 350.000 C 123.200 350.222,124.259 350.400,125.576 350.400 C 126.883 350.400,128.064 350.580,128.200 350.800 C 128.336 351.020,129.697 351.200,131.224 351.200 C 132.808 351.200,134.000 351.372,134.000 351.600 C 134.000 351.837,135.467 352.000,137.600 352.000 C 139.733 352.000,141.200 352.163,141.200 352.400 C 141.200 352.660,147.192 352.800,158.376 352.800 C 169.396 352.800,175.641 352.657,175.800 352.400 C 175.936 352.180,177.657 352.000,179.624 352.000 C 181.741 352.000,183.200 351.837,183.200 351.600 C 183.200 351.369,184.467 351.200,186.200 351.200 C 187.933 351.200,189.200 351.031,189.200 350.800 C 189.200 350.578,190.267 350.400,191.600 350.400 C 192.933 350.400,194.000 350.222,194.000 350.000 C 194.000 349.780,194.900 349.600,196.000 349.600 C 197.100 349.600,198.000 349.420,198.000 349.200 C 198.000 348.980,198.900 348.800,200.000 348.800 C 201.100 348.800,202.000 348.620,202.000 348.400 C 202.000 348.180,202.720 348.000,203.600 348.000 C 204.480 348.000,205.200 347.820,205.200 347.600 C 205.200 347.380,205.819 347.200,206.576 347.200 C 207.333 347.200,208.064 347.020,208.200 346.800 C 208.336 346.580,209.067 346.400,209.824 346.400 C 210.581 346.400,211.200 346.220,211.200 346.000 C 211.200 345.780,211.819 345.600,212.576 345.600 C 213.333 345.600,214.064 345.420,214.200 345.200 C 214.336 344.980,214.977 344.800,215.624 344.800 C 216.271 344.800,216.800 344.620,216.800 344.400 C 216.800 344.180,217.340 344.000,218.000 344.000 C 218.660 344.000,219.200 343.820,219.200 343.600 C 219.200 343.380,219.740 343.200,220.400 343.200 C 221.060 343.200,221.600 343.020,221.600 342.800 C 221.600 342.580,222.039 342.400,222.576 342.400 C 223.113 342.400,223.651 342.241,223.771 342.046 C 223.892 341.852,224.802 341.571,225.795 341.422 C 226.788 341.273,227.600 340.982,227.600 340.775 C 227.600 340.569,228.039 340.400,228.576 340.400 C 229.113 340.400,229.664 340.220,229.800 340.000 C 229.936 339.780,230.397 339.600,230.824 339.600 C 231.251 339.600,231.600 339.420,231.600 339.200 C 231.600 338.980,232.039 338.800,232.576 338.800 C 233.113 338.800,233.664 338.620,233.800 338.400 C 233.936 338.180,234.397 338.000,234.824 338.000 C 235.251 338.000,235.600 337.820,235.600 337.600 C 235.600 337.380,235.960 337.200,236.400 337.200 C 236.840 337.200,237.200 337.020,237.200 336.800 C 237.200 336.580,237.740 336.400,238.400 336.400 C 239.060 336.400,239.600 336.580,239.600 336.800 C 239.600 337.020,239.878 337.200,240.217 337.200 C 240.556 337.200,241.204 337.545,241.657 337.967 C 242.731 338.968,251.192 343.211,252.100 343.205 C 252.485 343.202,252.800 343.380,252.800 343.600 C 252.800 343.820,253.160 344.000,253.600 344.000 C 254.040 344.000,254.400 344.180,254.400 344.400 C 254.400 344.620,254.760 344.800,255.200 344.800 C 255.640 344.800,256.000 344.980,256.000 345.200 C 256.000 345.420,256.540 345.600,257.200 345.600 C 257.860 345.600,258.400 345.780,258.400 346.000 C 258.400 346.220,258.760 346.400,259.200 346.400 C 259.640 346.400,260.000 346.580,260.000 346.800 C 260.000 347.020,260.439 347.200,260.976 347.200 C 261.513 347.200,262.064 347.380,262.200 347.600 C 262.336 347.820,262.876 348.000,263.400 348.000 C 263.924 348.000,264.464 348.180,264.600 348.400 C 264.736 348.620,265.467 348.800,266.224 348.800 C 266.981 348.800,267.600 348.980,267.600 349.200 C 267.600 349.420,268.219 349.600,268.976 349.600 C 269.733 349.600,270.464 349.780,270.600 350.000 C 270.736 350.220,271.557 350.400,272.424 350.400 C 273.291 350.400,274.000 350.580,274.000 350.800 C 274.000 351.020,274.799 351.200,275.776 351.200 C 276.753 351.200,277.664 351.380,277.800 351.600 C 277.936 351.820,279.207 352.000,280.624 352.000 C 282.075 352.000,283.200 352.175,283.200 352.400 C 283.200 352.658,287.733 352.800,296.000 352.800 C 304.267 352.800,308.800 352.658,308.800 352.400 C 308.800 352.175,309.925 352.000,311.376 352.000 C 312.793 352.000,314.064 351.820,314.200 351.600 C 314.336 351.380,315.337 351.200,316.424 351.200 C 317.511 351.200,318.400 351.020,318.400 350.800 C 318.400 350.580,319.120 350.400,320.000 350.400 C 320.880 350.400,321.600 350.220,321.600 350.000 C 321.600 349.780,322.219 349.600,322.976 349.600 C 323.733 349.600,324.464 349.420,324.600 349.200 C 324.736 348.980,325.467 348.800,326.224 348.800 C 326.981 348.800,327.600 348.620,327.600 348.400 C 327.600 348.180,328.140 348.000,328.800 348.000 C 329.460 348.000,330.000 347.820,330.000 347.600 C 330.000 347.380,330.439 347.200,330.976 347.200 C 331.513 347.200,332.064 347.020,332.200 346.800 C 332.336 346.580,332.797 346.400,333.224 346.400 C 333.651 346.400,334.000 346.220,334.000 346.000 C 334.000 345.780,334.540 345.600,335.200 345.600 C 335.860 345.600,336.400 345.420,336.400 345.200 C 336.400 344.980,336.760 344.800,337.200 344.800 C 337.640 344.800,338.000 344.620,338.000 344.400 C 338.000 344.180,338.360 344.000,338.800 344.000 C 339.240 344.000,339.600 343.820,339.600 343.600 C 339.600 343.380,339.864 343.200,340.186 343.200 C 340.508 343.200,341.578 342.750,342.563 342.200 C 343.548 341.650,344.634 341.200,344.977 341.200 C 345.320 341.200,345.600 341.020,345.600 340.800 C 345.600 340.580,345.960 340.400,346.400 340.400 C 346.840 340.400,347.200 340.220,347.200 340.000 C 347.200 339.780,347.560 339.600,348.000 339.600 C 348.440 339.600,348.800 339.420,348.800 339.200 C 348.800 338.980,349.036 338.800,349.325 338.800 C 349.613 338.800,350.198 338.485,350.625 338.100 C 351.051 337.715,351.895 337.145,352.500 336.832 C 353.105 336.520,353.600 336.115,353.600 335.932 C 353.600 335.750,353.920 335.600,354.312 335.600 C 354.703 335.600,355.283 335.240,355.600 334.800 C 355.917 334.360,356.407 334.000,356.688 334.000 C 356.970 334.000,357.200 333.820,357.200 333.600 C 357.200 333.380,357.378 333.200,357.595 333.200 C 358.054 333.200,359.156 332.336,361.040 330.500 C 361.773 329.785,362.534 329.200,362.730 329.200 C 363.743 329.200,376.800 316.123,376.800 315.108 C 376.800 314.939,377.520 314.059,378.400 313.152 C 379.280 312.245,380.000 311.295,380.000 311.040 C 380.000 310.785,380.360 310.317,380.800 310.000 C 381.240 309.683,381.600 309.193,381.600 308.912 C 381.600 308.630,381.750 308.400,381.932 308.400 C 382.115 308.400,382.520 307.905,382.832 307.300 C 383.145 306.695,383.715 305.851,384.100 305.425 C 384.485 304.998,384.800 304.496,384.800 304.308 C 384.800 304.120,385.160 303.580,385.600 303.108 C 386.040 302.636,386.400 302.013,386.400 301.725 C 386.400 301.436,386.580 301.200,386.800 301.200 C 387.020 301.200,387.200 300.840,387.200 300.400 C 387.200 299.960,387.380 299.600,387.600 299.600 C 387.820 299.600,388.000 299.255,388.000 298.833 C 388.000 298.412,388.137 298.007,388.303 297.933 C 388.808 297.712,391.095 293.091,391.389 291.700 C 391.540 290.985,391.829 290.400,392.032 290.400 C 392.234 290.400,392.400 290.051,392.400 289.624 C 392.400 289.197,392.580 288.736,392.800 288.600 C 393.020 288.464,393.200 287.913,393.200 287.376 C 393.200 286.839,393.380 286.400,393.600 286.400 C 393.820 286.400,394.000 286.051,394.000 285.624 C 394.000 285.197,394.180 284.736,394.400 284.600 C 394.620 284.464,394.800 283.913,394.800 283.376 C 394.800 282.839,394.980 282.400,395.200 282.400 C 395.420 282.400,395.600 281.860,395.600 281.200 C 395.600 280.540,395.780 280.000,396.000 280.000 C 396.220 280.000,396.400 279.280,396.400 278.400 C 396.400 277.520,396.580 276.800,396.800 276.800 C 397.020 276.800,397.200 276.170,397.200 275.400 C 397.200 274.630,397.380 274.000,397.600 274.000 C 397.820 274.000,398.000 273.280,398.000 272.400 C 398.000 271.520,398.180 270.800,398.400 270.800 C 398.620 270.800,398.800 269.915,398.800 268.833 C 398.800 267.616,398.990 266.803,399.300 266.700 C 399.690 266.570,399.800 262.609,399.800 248.687 C 399.800 234.943,399.685 230.725,399.300 230.340 C 399.025 230.065,398.800 229.077,398.800 228.144 C 398.800 227.211,398.620 226.336,398.400 226.200 C 398.180 226.064,398.000 225.254,398.000 224.400 C 398.000 223.546,397.820 222.736,397.600 222.600 C 397.380 222.464,397.200 221.823,397.200 221.176 C 397.200 220.529,397.020 220.000,396.800 220.000 C 396.580 220.000,396.400 219.280,396.400 218.400 C 396.400 217.520,396.220 216.800,396.000 216.800 C 395.780 216.800,395.600 216.361,395.600 215.824 C 395.600 215.287,395.420 214.736,395.200 214.600 C 394.980 214.464,394.800 213.924,394.800 213.400 C 394.800 212.876,394.620 212.336,394.400 212.200 C 394.180 212.064,394.000 211.603,394.000 211.176 C 394.000 210.749,393.820 210.400,393.600 210.400 C 393.380 210.400,393.200 209.950,393.200 209.400 C 393.200 208.850,393.020 208.400,392.800 208.400 C 392.580 208.400,392.400 208.040,392.400 207.600 C 392.400 207.160,392.240 206.800,392.045 206.800 C 391.849 206.800,391.563 206.125,391.409 205.300 C 391.131 203.807,388.072 197.521,387.500 197.267 C 387.335 197.193,387.200 196.788,387.200 196.367 C 387.200 195.945,387.020 195.600,386.800 195.600 C 386.580 195.600,386.400 195.364,386.400 195.075 C 386.400 194.787,386.040 194.164,385.600 193.692 C 385.160 193.220,384.800 192.646,384.800 192.417 C 384.800 192.188,384.650 192.000,384.468 192.000 C 384.285 192.000,383.881 191.505,383.570 190.900 C 383.260 190.295,382.689 189.509,382.303 189.153 C 381.916 188.797,381.600 188.252,381.600 187.941 C 381.600 187.631,381.240 187.117,380.800 186.800 C 380.360 186.483,380.000 186.015,380.000 185.760 C 380.000 185.505,379.280 184.555,378.400 183.648 C 377.520 182.741,376.800 181.796,376.800 181.549 C 376.800 180.981,363.364 167.600,362.794 167.600 C 362.563 167.600,361.760 166.986,361.009 166.236 C 360.259 165.486,359.095 164.547,358.423 164.150 C 357.750 163.753,357.200 163.286,357.200 163.114 C 357.200 162.941,356.930 162.800,356.600 162.800 C 356.270 162.800,356.000 162.650,356.000 162.468 C 356.000 162.285,355.505 161.880,354.900 161.568 C 354.295 161.255,353.451 160.685,353.025 160.300 C 352.598 159.915,352.035 159.600,351.774 159.600 C 351.512 159.600,351.074 159.330,350.800 159.000 C 350.526 158.670,349.964 158.400,349.551 158.400 C 349.138 158.400,348.800 158.220,348.800 158.000 C 348.800 157.780,348.522 157.600,348.183 157.600 C 347.844 157.600,347.180 157.240,346.708 156.800 C 346.236 156.360,345.613 156.000,345.325 156.000 C 345.036 156.000,344.800 155.820,344.800 155.600 C 344.800 155.380,344.440 155.200,344.000 155.200 C 343.560 155.200,343.200 155.020,343.200 154.800 C 343.200 154.580,342.840 154.400,342.400 154.400 C 341.960 154.400,341.600 154.220,341.600 154.000 C 341.600 153.780,341.150 153.600,340.600 153.600 C 340.050 153.600,339.600 153.420,339.600 153.200 C 339.600 152.980,339.240 152.800,338.800 152.800 C 338.360 152.800,338.000 152.620,338.000 152.400 C 338.000 152.180,337.640 152.000,337.200 152.000 C 336.760 152.000,336.400 151.820,336.400 151.600 C 336.400 151.380,335.860 151.200,335.200 151.200 C 334.540 151.200,334.000 151.020,334.000 150.800 C 334.000 150.580,333.651 150.400,333.224 150.400 C 332.797 150.400,332.336 150.220,332.200 150.000 C 332.064 149.780,331.513 149.600,330.976 149.600 C 330.439 149.600,330.000 149.420,330.000 149.200 C 330.000 148.980,329.460 148.800,328.800 148.800 C 328.140 148.800,327.600 148.620,327.600 148.400 C 327.600 148.180,326.981 148.000,326.224 148.000 C 325.467 148.000,324.736 147.820,324.600 147.600 C 324.464 147.380,323.834 147.200,323.200 147.200 C 322.566 147.200,321.936 147.020,321.800 146.800 C 321.664 146.580,320.843 146.400,319.976 146.400 C 319.109 146.400,318.400 146.220,318.400 146.000 C 318.400 145.780,317.500 145.600,316.400 145.600 C 315.300 145.600,314.400 145.420,314.400 145.200 C 314.400 144.971,313.200 144.800,311.600 144.800 C 310.000 144.800,308.800 144.629,308.800 144.400 C 308.800 144.153,306.757 144.000,303.472 144.000 C 298.000 144.000,296.400 143.456,296.400 141.597 C 296.400 141.379,296.220 141.200,296.000 141.200 C 295.780 141.200,295.600 140.957,295.600 140.659 C 295.600 140.362,295.060 139.554,294.400 138.863 C 293.740 138.172,293.200 137.402,293.200 137.151 C 293.200 136.899,292.866 136.403,292.457 136.047 C 292.049 135.691,291.593 135.016,291.445 134.547 C 291.297 134.077,290.665 133.159,290.041 132.506 C 289.417 131.853,288.837 131.121,288.753 130.879 C 288.408 129.889,275.179 116.000,274.580 116.000 C 274.447 116.000,273.676 115.319,272.869 114.487 C 272.061 113.655,270.770 112.535,270.000 111.998 C 269.230 111.461,268.240 110.687,267.800 110.277 C 267.360 109.867,266.460 109.251,265.800 108.907 C 265.140 108.563,264.309 107.948,263.953 107.541 C 263.597 107.133,263.052 106.800,262.741 106.800 C 262.431 106.800,261.917 106.440,261.600 106.000 C 261.283 105.560,260.769 105.200,260.459 105.200 C 260.148 105.200,259.603 104.884,259.247 104.497 C 258.891 104.111,258.060 103.526,257.400 103.197 C 256.740 102.869,255.851 102.285,255.425 101.900 C 254.998 101.515,254.413 101.200,254.125 101.200 C 253.836 101.200,253.600 101.020,253.600 100.800 C 253.600 100.580,253.240 100.400,252.800 100.400 C 252.360 100.400,252.000 100.220,252.000 100.000 C 252.000 99.780,251.640 99.600,251.200 99.600 C 250.760 99.600,250.400 99.441,250.400 99.247 C 250.400 99.052,250.085 98.793,249.700 98.671 C 249.315 98.549,248.550 98.191,248.000 97.875 C 245.986 96.718,243.510 95.600,242.962 95.600 C 242.653 95.600,242.400 95.420,242.400 95.200 C 242.400 94.980,242.040 94.800,241.600 94.800 C 241.160 94.800,240.800 94.620,240.800 94.400 C 240.800 94.180,240.528 94.000,240.195 94.000 C 239.862 94.000,239.232 93.820,238.795 93.600 C 238.358 93.380,237.678 93.042,237.285 92.849 C 236.891 92.657,235.811 92.371,234.885 92.214 C 233.958 92.058,233.200 91.766,233.200 91.565 C 233.200 91.364,232.660 91.200,232.000 91.200 C 231.340 91.200,230.800 91.020,230.800 90.800 C 230.800 90.580,230.260 90.400,229.600 90.400 C 228.940 90.400,228.400 90.220,228.400 90.000 C 228.400 89.780,227.871 89.600,227.224 89.600 C 226.577 89.600,225.936 89.420,225.800 89.200 C 225.664 88.980,225.023 88.800,224.376 88.800 C 223.729 88.800,223.200 88.620,223.200 88.400 C 223.200 88.180,222.480 88.000,221.600 88.000 C 220.720 88.000,220.000 87.820,220.000 87.600 C 220.000 87.380,219.280 87.200,218.400 87.200 C 217.520 87.200,216.800 87.020,216.800 86.800 C 216.800 86.580,215.900 86.400,214.800 86.400 C 213.700 86.400,212.800 86.220,212.800 86.000 C 212.800 85.780,211.821 85.600,210.624 85.600 C 209.427 85.600,208.336 85.420,208.200 85.200 C 208.064 84.980,206.804 84.800,205.400 84.800 C 203.996 84.800,202.736 84.620,202.600 84.400 C 202.458 84.171,200.396 84.000,197.776 84.000 C 194.992 84.000,193.200 83.843,193.200 83.600 C 193.200 83.346,190.200 83.200,185.000 83.200 L 176.800 83.200 176.800 79.024 C 176.800 76.671,176.625 74.739,176.400 74.600 C 176.169 74.457,176.000 72.289,176.000 69.456 C 176.000 66.763,175.838 64.389,175.641 64.180 C 175.444 63.971,175.205 61.550,175.111 58.800 C 174.894 52.477,173.799 50.246,169.814 48.008 C 167.664 46.800,149.343 46.821,147.277 48.033 M162.030 60.500 C 162.047 60.555,162.227 63.030,162.430 66.000 C 162.633 68.970,162.971 73.560,163.182 76.200 C 163.393 78.840,163.740 83.450,163.954 86.445 C 164.723 97.203,164.363 96.990,181.800 97.032 C 196.509 97.067,202.476 97.580,211.800 99.612 C 212.680 99.804,214.390 100.174,215.600 100.434 C 219.539 101.280,227.551 103.682,228.895 104.419 C 229.277 104.629,229.872 104.800,230.218 104.800 C 230.564 104.800,230.749 104.960,230.628 105.155 C 230.421 105.489,228.537 105.978,216.400 108.846 C 206.764 111.123,206.153 111.362,203.559 113.859 C 200.067 117.222,199.541 120.904,200.709 133.800 C 200.988 136.880,201.377 141.380,201.573 143.800 C 201.769 146.220,202.059 149.505,202.217 151.100 C 202.577 154.747,202.548 154.748,197.647 151.268 C 195.531 149.766,192.630 147.754,191.200 146.798 C 189.770 145.842,188.510 144.949,188.400 144.812 C 188.290 144.676,186.490 143.384,184.400 141.942 C 182.310 140.499,178.350 137.729,175.600 135.785 C 163.907 127.519,163.870 127.497,160.688 126.785 C 158.900 126.385,158.057 126.383,156.523 126.779 C 153.217 127.630,153.495 127.459,140.200 136.867 C 137.560 138.735,134.500 140.871,133.400 141.613 C 132.300 142.355,131.196 143.151,130.946 143.381 C 130.697 143.611,128.717 145.011,126.546 146.491 C 124.376 147.972,120.943 150.352,118.917 151.781 C 114.630 154.806,114.628 154.805,115.163 149.701 C 115.387 147.555,115.765 143.370,116.002 140.400 C 116.240 137.430,116.606 133.238,116.817 131.084 C 118.130 117.667,115.787 112.534,107.400 110.447 C 106.300 110.173,104.770 109.786,104.000 109.586 C 102.051 109.079,93.193 106.975,89.700 106.189 C 88.105 105.830,86.800 105.401,86.800 105.235 C 86.800 105.070,88.105 104.511,89.700 103.993 C 91.295 103.475,92.780 102.929,93.000 102.779 C 93.220 102.630,93.850 102.411,94.400 102.293 C 94.950 102.175,97.110 101.639,99.200 101.102 C 102.763 100.187,105.304 99.619,109.600 98.774 C 115.896 97.537,123.106 97.057,135.800 97.029 C 152.779 96.992,152.567 97.109,153.269 87.413 C 153.461 84.766,153.795 80.260,154.010 77.400 C 154.704 68.197,155.162 61.818,155.181 61.100 C 155.197 60.500,161.853 59.917,162.030 60.500 M73.609 111.500 C 73.624 111.980,76.086 114.547,77.451 115.506 C 78.525 116.260,80.437 116.939,83.800 117.758 C 85.602 118.198,91.728 119.639,96.800 120.817 C 99.770 121.507,102.809 122.257,103.553 122.484 L 104.907 122.897 104.635 125.549 C 104.485 127.007,104.184 130.450,103.965 133.200 C 103.746 135.950,103.393 140.090,103.182 142.400 C 101.775 157.755,102.194 161.114,105.934 164.492 C 110.744 168.839,116.158 169.044,121.878 165.098 C 124.621 163.206,131.593 158.312,138.708 153.284 C 141.288 151.460,144.930 148.906,146.800 147.608 C 148.670 146.310,152.000 143.979,154.200 142.428 C 156.400 140.877,158.409 139.606,158.664 139.604 C 159.060 139.601,166.610 144.659,168.400 146.127 C 168.730 146.398,170.710 147.798,172.800 149.239 C 174.890 150.680,179.007 153.555,181.949 155.629 C 184.891 157.703,188.707 160.390,190.430 161.600 C 192.153 162.810,194.276 164.309,195.148 164.931 C 200.877 169.020,206.962 168.855,211.462 164.487 C 214.992 161.062,215.578 157.357,214.445 145.639 C 214.219 143.307,213.838 138.970,213.598 136.000 C 213.358 133.030,212.975 128.920,212.747 126.866 C 212.520 124.813,212.400 123.067,212.480 122.987 C 212.665 122.801,217.494 121.570,224.200 119.997 C 227.060 119.327,230.030 118.610,230.800 118.405 C 231.570 118.200,233.309 117.771,234.664 117.452 C 238.796 116.479,242.099 114.371,243.517 111.800 C 244.344 110.302,253.057 115.665,263.200 123.915 C 269.291 128.869,282.889 144.084,282.209 145.185 C 282.079 145.396,281.303 145.673,280.486 145.800 C 245.042 151.301,214.556 174.961,200.598 207.800 C 200.224 208.680,199.765 209.760,199.578 210.200 C 190.179 232.255,190.179 264.545,199.578 286.600 C 200.999 289.936,201.468 290.970,202.845 293.800 C 207.958 304.310,215.412 314.628,223.771 322.766 C 225.673 324.617,227.087 326.268,226.914 326.435 C 226.163 327.162,214.329 331.466,209.400 332.806 C 197.875 335.940,192.827 336.953,180.800 338.548 C 168.516 340.178,148.792 340.282,137.800 338.777 C 128.535 337.507,128.209 337.455,122.400 336.323 C 88.710 329.758,56.772 312.021,39.350 290.200 C 38.297 288.880,37.332 287.710,37.207 287.600 C 36.204 286.718,30.020 277.666,27.917 274.000 C 23.079 265.569,18.255 253.603,16.225 245.000 C 15.862 243.460,15.392 241.480,15.181 240.600 C 10.635 221.670,11.943 197.600,18.615 177.382 C 27.643 150.026,44.824 128.137,68.669 113.609 C 72.408 111.331,73.588 110.827,73.609 111.500 M308.400 157.848 C 369.315 165.827,405.176 231.792,378.828 287.400 C 367.584 311.131,346.061 329.427,321.200 336.389 C 320.210 336.666,318.950 337.033,318.400 337.204 C 317.439 337.502,314.848 338.037,310.600 338.814 C 302.463 340.301,287.600 340.219,280.600 338.647 C 280.160 338.549,278.720 338.250,277.400 337.983 C 264.718 335.421,245.578 326.411,239.200 320.001 C 239.090 319.890,237.830 318.819,236.400 317.619 C 208.389 294.126,197.634 254.270,209.682 218.600 C 217.942 194.144,238.235 172.826,262.000 163.638 C 263.870 162.915,265.760 162.173,266.200 161.988 C 267.809 161.314,274.172 159.535,277.400 158.858 C 287.104 156.821,297.880 156.470,308.400 157.848 M285.600 169.222 C 284.610 169.424,282.630 169.793,281.200 170.042 C 278.380 170.533,273.824 171.684,270.600 172.719 C 250.088 179.307,231.231 196.857,222.591 217.400 C 222.221 218.280,221.766 219.360,221.581 219.800 C 220.896 221.421,218.906 227.863,218.460 229.900 C 216.708 237.900,216.400 240.668,216.400 248.400 C 216.400 254.828,216.661 257.918,217.648 263.200 C 218.274 266.545,219.412 271.088,220.004 272.600 C 220.177 273.040,220.713 274.570,221.196 276.000 C 225.251 288.005,235.092 301.726,245.772 310.266 C 247.547 311.685,249.270 313.064,249.600 313.330 C 266.619 327.040,294.766 331.670,319.400 324.811 C 370.113 310.690,392.069 247.960,361.930 203.297 C 359.734 200.042,359.478 199.718,355.552 195.228 C 348.449 187.104,330.442 174.400,326.030 174.400 C 325.788 174.400,325.277 174.226,324.895 174.014 C 322.784 172.841,315.517 170.832,308.600 169.508 C 305.886 168.988,287.843 168.764,285.600 169.222 M306.400 181.645 C 307.830 181.870,309.553 182.223,310.228 182.427 C 310.904 182.632,311.716 182.800,312.033 182.800 C 313.865 182.800,322.782 186.194,327.600 188.725 C 350.119 200.553,363.348 222.697,363.371 248.600 C 363.420 303.167,302.245 334.959,257.400 303.672 C 255.640 302.444,254.110 301.340,254.000 301.219 C 253.890 301.099,252.399 299.763,250.687 298.252 C 222.145 273.060,221.542 224.439,249.463 199.588 C 266.195 184.697,286.055 178.438,306.400 181.645 M292.492 201.840 C 289.905 203.878,289.998 202.917,290.019 227.480 C 290.045 257.810,287.632 254.948,313.000 254.728 C 331.087 254.572,332.199 254.205,332.179 248.407 C 332.160 242.854,330.864 242.400,315.031 242.400 L 302.430 242.400 302.315 223.700 L 302.200 205.000 301.261 203.490 C 299.471 200.611,295.096 199.788,292.492 201.840 " stroke="none" fill="#060604" fill-rule="evenodd"></path><path id="path1" d="M286.854 181.814 C 246.720 188.079,221.458 225.991,231.157 265.400 C 236.517 287.178,255.593 306.989,276.800 312.800 C 277.790 313.071,279.050 313.433,279.600 313.604 C 280.580 313.908,282.568 314.306,287.424 315.169 C 290.362 315.691,301.616 315.739,304.280 315.241 C 305.336 315.043,307.460 314.670,309.000 314.411 C 310.540 314.152,312.250 313.794,312.800 313.616 C 313.350 313.438,314.610 313.071,315.600 312.801 C 316.590 312.530,317.760 312.167,318.200 311.993 C 318.640 311.820,320.080 311.265,321.400 310.760 C 337.489 304.603,352.174 289.740,358.707 273.000 C 370.877 241.818,357.567 204.888,328.658 189.627 C 327.526 189.029,326.240 188.343,325.800 188.103 C 315.912 182.697,298.849 179.942,286.854 181.814 M299.192 201.143 C 299.966 201.543,301.005 202.466,301.500 203.194 L 302.400 204.518 302.400 223.259 L 302.400 242.000 315.065 242.000 L 327.730 242.000 329.502 243.038 C 334.039 245.697,333.726 251.606,328.905 254.300 C 327.616 255.021,294.784 255.021,293.495 254.300 C 289.456 252.043,289.600 253.027,289.600 227.642 C 289.600 204.806,289.635 204.293,291.327 202.447 C 293.490 200.088,296.256 199.629,299.192 201.143 " stroke="none" fill="#eaf2fa" fill-rule="evenodd"></path><path id="path2" d="M155.181 61.100 C 155.162 61.818,154.704 68.197,154.010 77.400 C 153.795 80.260,153.461 84.766,153.269 87.413 C 152.567 97.109,152.779 96.992,135.800 97.029 C 123.106 97.057,115.896 97.537,109.600 98.774 C 105.304 99.619,102.763 100.187,99.200 101.102 C 97.110 101.639,94.950 102.175,94.400 102.293 C 93.850 102.411,93.220 102.630,93.000 102.779 C 92.780 102.929,91.295 103.475,89.700 103.993 C 88.105 104.511,86.800 105.070,86.800 105.235 C 86.800 105.401,88.105 105.830,89.700 106.189 C 93.193 106.975,102.051 109.079,104.000 109.586 C 104.770 109.786,106.300 110.173,107.400 110.447 C 115.787 112.534,118.130 117.667,116.817 131.084 C 116.606 133.238,116.240 137.430,116.002 140.400 C 115.765 143.370,115.387 147.555,115.163 149.701 C 114.628 154.805,114.630 154.806,118.917 151.781 C 120.943 150.352,124.376 147.972,126.546 146.491 C 128.717 145.011,130.697 143.611,130.946 143.381 C 131.196 143.151,132.300 142.355,133.400 141.613 C 134.500 140.871,137.560 138.735,140.200 136.867 C 153.495 127.459,153.217 127.630,156.523 126.779 C 158.057 126.383,158.900 126.385,160.688 126.785 C 163.870 127.497,163.907 127.519,175.600 135.785 C 178.350 137.729,182.310 140.499,184.400 141.942 C 186.490 143.384,188.290 144.676,188.400 144.812 C 188.510 144.949,189.770 145.842,191.200 146.798 C 192.630 147.754,195.531 149.766,197.647 151.268 C 202.548 154.748,202.577 154.747,202.217 151.100 C 202.059 149.505,201.769 146.220,201.573 143.800 C 201.377 141.380,200.988 136.880,200.709 133.800 C 199.541 120.904,200.067 117.222,203.559 113.859 C 206.153 111.362,206.764 111.123,216.400 108.846 C 228.537 105.978,230.421 105.489,230.628 105.155 C 230.749 104.960,230.564 104.800,230.218 104.800 C 229.872 104.800,229.277 104.629,228.895 104.419 C 227.551 103.682,219.539 101.280,215.600 100.434 C 214.390 100.174,212.680 99.804,211.800 99.612 C 202.476 97.580,196.509 97.067,181.800 97.032 C 164.363 96.990,164.723 97.203,163.954 86.445 C 163.740 83.450,163.393 78.840,163.182 76.200 C 162.971 73.560,162.633 68.970,162.430 66.000 C 162.227 63.030,162.047 60.555,162.030 60.500 C 161.853 59.917,155.197 60.500,155.181 61.100 M286.200 157.645 C 284.880 157.837,282.528 158.183,280.973 158.414 C 234.387 165.339,199.643 211.399,205.401 258.600 C 205.724 261.240,206.065 263.760,206.160 264.200 C 206.254 264.640,206.550 266.080,206.817 267.400 C 208.614 276.294,212.674 286.799,217.186 294.226 C 218.074 295.686,218.800 296.955,218.800 297.045 C 218.800 297.135,219.461 298.151,220.269 299.304 C 229.755 312.834,241.076 322.857,254.616 329.716 C 258.204 331.533,259.482 332.109,264.200 334.033 C 265.361 334.507,268.806 335.644,270.200 336.013 C 270.860 336.188,272.445 336.616,273.721 336.966 C 282.530 339.376,301.449 340.383,309.400 338.866 C 322.469 336.371,328.411 334.434,337.800 329.610 C 356.844 319.823,373.881 301.209,380.827 282.600 C 380.991 282.160,381.429 280.990,381.801 280.000 C 384.587 272.570,385.966 266.431,387.012 256.800 C 387.843 249.153,387.563 241.265,386.184 233.400 C 385.749 230.920,385.062 227.727,384.506 225.600 C 383.234 220.733,383.131 220.391,382.402 218.600 C 382.223 218.160,381.489 216.270,380.772 214.400 C 370.643 188.000,346.615 167.070,318.109 159.817 C 309.000 157.499,294.158 156.489,286.200 157.645 M308.600 169.415 C 344.920 175.914,371.185 203.307,375.620 239.316 C 376.923 249.888,375.052 266.502,371.603 275.000 C 371.424 275.440,370.870 276.880,370.372 278.200 C 363.416 296.622,346.678 313.839,328.000 321.783 C 326.570 322.392,325.040 323.045,324.600 323.236 C 295.382 335.890,254.811 325.015,234.186 299.000 C 233.314 297.900,232.489 296.910,232.353 296.800 C 231.428 296.050,225.940 287.023,224.207 283.400 C 220.408 275.460,218.374 268.847,216.762 259.200 C 215.790 253.381,216.382 238.037,217.812 232.000 C 217.943 231.450,218.239 230.190,218.470 229.200 C 227.675 189.804,269.075 162.342,308.600 169.415 M248.191 201.300 L 245.000 204.600 248.300 201.409 C 251.365 198.446,251.782 198.000,251.491 198.000 C 251.430 198.000,249.945 199.485,248.191 201.300 M343.400 200.800 C 344.706 202.120,345.865 203.200,345.975 203.200 C 346.085 203.200,345.106 202.120,343.800 200.800 C 342.494 199.480,341.335 198.400,341.225 198.400 C 341.115 198.400,342.094 199.480,343.400 200.800 M289.787 227.600 C 289.787 240.030,289.838 245.115,289.900 238.900 C 289.962 232.685,289.962 222.515,289.900 216.300 C 289.838 210.085,289.787 215.170,289.787 227.600 M228.957 248.400 C 228.957 251.370,229.020 252.585,229.097 251.100 C 229.174 249.615,229.174 247.185,229.097 245.700 C 229.020 244.215,228.957 245.430,228.957 248.400 M363.340 248.400 C 363.340 250.270,363.409 251.035,363.493 250.100 C 363.577 249.165,363.577 247.635,363.493 246.700 C 363.409 245.765,363.340 246.530,363.340 248.400 M246.000 293.400 C 246.746 294.170,247.447 294.800,247.557 294.800 C 247.667 294.800,247.146 294.170,246.400 293.400 C 245.654 292.630,244.953 292.000,244.843 292.000 C 244.733 292.000,245.254 292.630,246.000 293.400 M345.375 294.100 L 344.200 295.400 345.500 294.225 C 346.215 293.579,346.800 292.994,346.800 292.925 C 346.800 292.616,346.470 292.888,345.375 294.100 M341.375 298.100 L 340.200 299.400 341.500 298.225 C 342.215 297.579,342.800 296.994,342.800 296.925 C 342.800 296.616,342.470 296.888,341.375 298.100 M250.400 297.725 C 250.400 297.794,250.985 298.379,251.700 299.025 L 253.000 300.200 251.825 298.900 C 250.730 297.688,250.400 297.416,250.400 297.725 " stroke="none" fill="#c2d61e" fill-rule="evenodd"></path><path id="path3" d="M242.398 113.971 C 240.623 115.918,238.521 117.112,235.400 117.947 C 231.929 118.876,215.905 122.606,214.205 122.881 C 213.416 123.008,213.169 131.370,213.918 132.589 C 214.049 132.802,214.305 135.232,214.486 137.989 C 214.914 144.525,215.491 151.606,215.833 154.543 C 216.894 163.643,206.679 171.293,198.496 167.528 C 196.702 166.702,193.233 164.552,192.800 163.996 C 192.690 163.855,191.430 162.956,190.000 161.998 C 188.570 161.039,187.340 160.108,187.267 159.928 C 187.193 159.747,186.893 159.600,186.600 159.600 C 186.307 159.600,186.007 159.456,185.933 159.280 C 185.860 159.104,183.190 157.175,180.000 154.994 C 176.810 152.813,174.020 150.873,173.800 150.682 C 173.425 150.358,169.746 147.767,164.200 143.923 C 162.880 143.009,161.710 142.156,161.600 142.029 C 161.490 141.903,160.905 141.544,160.300 141.232 C 159.695 140.920,159.200 140.515,159.200 140.332 C 159.200 139.902,158.108 139.898,157.933 140.328 C 157.860 140.508,156.630 141.441,155.200 142.400 C 153.770 143.359,152.540 144.292,152.467 144.472 C 152.393 144.653,152.093 144.800,151.800 144.800 C 151.507 144.800,151.207 144.947,151.133 145.128 C 151.060 145.308,149.830 146.239,148.400 147.198 C 146.970 148.156,145.710 149.051,145.600 149.188 C 145.490 149.324,143.600 150.677,141.400 152.193 C 139.200 153.710,136.617 155.502,135.659 156.175 C 134.702 156.849,133.622 157.580,133.259 157.800 C 132.897 158.020,132.510 158.304,132.400 158.430 C 132.290 158.557,131.030 159.448,129.600 160.411 C 128.170 161.373,126.651 162.485,126.225 162.881 C 125.798 163.276,125.228 163.600,124.958 163.600 C 124.688 163.600,124.407 163.747,124.333 163.928 C 124.107 164.483,119.280 167.600,118.646 167.600 C 118.316 167.600,117.936 167.780,117.800 168.000 C 117.276 168.847,111.357 168.461,109.109 167.433 C 104.599 165.370,100.904 159.616,101.511 155.600 C 101.561 155.270,101.795 152.390,102.031 149.200 C 102.268 146.010,102.618 141.510,102.810 139.200 C 103.002 136.890,103.345 132.750,103.572 130.000 C 103.800 127.250,104.034 124.556,104.093 124.012 C 104.171 123.288,103.987 122.991,103.400 122.899 C 102.457 122.751,97.095 121.546,91.200 120.157 C 88.890 119.613,86.190 118.984,85.200 118.759 C 79.513 117.466,77.530 116.569,74.931 114.115 C 72.733 112.038,73.030 111.964,67.943 115.863 C 60.829 121.316,49.313 133.208,44.773 139.791 C 44.018 140.885,43.085 142.134,42.700 142.566 C 42.315 142.998,42.000 143.504,42.000 143.692 C 42.000 143.880,41.640 144.420,41.200 144.892 C 40.760 145.364,40.400 145.987,40.400 146.275 C 40.400 146.564,40.220 146.800,40.000 146.800 C 39.780 146.800,39.600 146.993,39.600 147.228 C 39.600 147.463,39.099 148.408,38.488 149.328 C 37.876 150.248,37.111 151.540,36.788 152.200 C 36.465 152.860,36.106 153.490,35.990 153.600 C 35.173 154.373,29.887 166.060,28.573 170.000 C 28.169 171.210,27.695 172.371,27.519 172.580 C 27.344 172.789,27.200 173.363,27.200 173.856 C 27.200 174.349,27.020 174.864,26.800 175.000 C 26.580 175.136,26.400 175.676,26.400 176.200 C 26.400 176.724,26.220 177.264,26.000 177.400 C 25.780 177.536,25.600 178.267,25.600 179.024 C 25.600 179.781,25.420 180.400,25.200 180.400 C 24.980 180.400,24.800 180.929,24.800 181.576 C 24.800 182.223,24.620 182.864,24.400 183.000 C 24.180 183.136,24.000 183.831,24.000 184.544 C 24.000 185.257,23.838 186.011,23.641 186.220 C 23.444 186.429,23.181 187.320,23.057 188.200 C 22.933 189.080,22.637 190.880,22.400 192.200 C 20.347 203.618,19.776 215.131,20.734 225.800 C 20.991 228.660,21.306 232.170,21.434 233.600 C 21.562 235.030,21.832 236.371,22.034 236.580 C 22.235 236.789,22.400 237.723,22.400 238.656 C 22.400 239.589,22.580 240.464,22.800 240.600 C 23.020 240.736,23.200 241.546,23.200 242.400 C 23.200 243.254,23.380 244.064,23.600 244.200 C 23.820 244.336,24.000 245.056,24.000 245.800 C 24.000 246.544,24.180 247.264,24.400 247.400 C 24.620 247.536,24.800 248.166,24.800 248.800 C 24.800 249.434,24.980 250.064,25.200 250.200 C 25.420 250.336,25.600 250.966,25.600 251.600 C 25.600 252.234,25.780 252.864,26.000 253.000 C 26.220 253.136,26.400 253.676,26.400 254.200 C 26.400 254.724,26.580 255.264,26.800 255.400 C 27.020 255.536,27.200 255.999,27.200 256.429 C 27.200 256.859,27.365 257.523,27.566 257.905 C 27.767 258.287,28.509 260.130,29.215 262.000 C 30.867 266.377,35.236 275.313,37.240 278.414 C 38.098 279.741,38.800 281.001,38.800 281.213 C 38.800 281.426,38.980 281.600,39.200 281.600 C 39.420 281.600,39.600 281.836,39.600 282.125 C 39.600 282.413,39.915 282.998,40.300 283.425 C 40.685 283.851,41.255 284.695,41.568 285.300 C 41.880 285.905,42.285 286.400,42.468 286.400 C 42.650 286.400,42.800 286.670,42.800 287.000 C 42.800 287.330,42.941 287.600,43.114 287.600 C 43.286 287.600,43.720 288.095,44.079 288.700 C 44.437 289.305,45.127 290.250,45.613 290.800 C 46.100 291.350,47.477 293.020,48.675 294.511 C 52.552 299.339,62.402 308.830,67.600 312.745 C 68.370 313.325,69.232 314.019,69.515 314.286 C 69.798 314.553,70.563 315.087,71.215 315.472 C 71.867 315.857,72.400 316.314,72.400 316.486 C 72.400 316.659,72.636 316.800,72.925 316.800 C 73.213 316.800,73.836 317.160,74.308 317.600 C 74.780 318.040,75.339 318.400,75.550 318.400 C 75.761 318.400,75.993 318.535,76.067 318.700 C 76.140 318.865,77.010 319.425,78.000 319.944 C 85.857 324.062,87.352 324.800,87.843 324.800 C 88.149 324.800,88.400 324.980,88.400 325.200 C 88.400 325.420,88.672 325.600,89.005 325.600 C 89.338 325.600,89.923 325.759,90.305 325.953 C 91.092 326.353,93.006 327.163,94.200 327.600 C 94.640 327.761,95.450 328.081,96.000 328.311 C 99.143 329.625,111.121 333.166,116.600 334.400 C 117.700 334.648,119.230 335.012,120.000 335.209 C 120.770 335.406,122.030 335.673,122.800 335.802 C 123.570 335.931,125.190 336.215,126.400 336.434 C 142.966 339.430,163.121 340.022,180.000 338.007 C 189.123 336.918,194.878 335.840,205.500 333.232 C 209.023 332.366,218.732 329.340,221.100 328.369 C 221.595 328.166,222.405 327.839,222.900 327.643 C 223.395 327.447,224.385 327.028,225.101 326.712 L 226.402 326.137 224.301 324.117 C 221.144 321.081,218.005 317.702,215.648 314.800 C 212.801 311.295,212.729 311.202,211.614 309.600 C 211.077 308.830,210.540 308.110,210.419 308.000 C 210.298 307.890,209.944 307.305,209.632 306.700 C 209.320 306.095,208.915 305.600,208.732 305.600 C 208.550 305.600,208.400 305.407,208.400 305.172 C 208.400 304.937,207.860 303.959,207.200 303.000 C 206.540 302.041,206.000 301.136,206.000 300.990 C 206.000 300.843,205.638 300.215,205.196 299.594 C 203.110 296.665,198.735 286.716,196.843 280.600 C 196.367 279.060,195.802 277.247,195.589 276.572 C 195.375 275.896,195.200 274.962,195.200 274.495 C 195.200 274.029,195.039 273.548,194.842 273.426 C 194.502 273.216,194.283 272.160,193.777 268.300 C 193.655 267.365,193.392 266.240,193.194 265.800 C 192.313 263.846,191.584 237.856,192.388 237.052 C 192.614 236.826,192.800 235.542,192.800 234.200 C 192.800 232.858,192.963 231.589,193.163 231.380 C 193.363 231.171,193.620 230.100,193.735 229.000 C 194.015 226.309,194.383 224.366,194.797 223.400 C 194.986 222.960,195.225 222.150,195.330 221.600 C 195.957 218.304,198.549 210.770,200.696 206.000 C 202.715 201.516,202.963 200.996,203.179 200.800 C 203.301 200.690,203.774 199.880,204.230 199.000 C 205.304 196.931,206.148 195.452,206.400 195.200 C 206.510 195.090,206.797 194.640,207.038 194.200 C 208.144 192.177,208.617 191.385,208.830 191.200 C 208.957 191.090,209.837 189.847,210.787 188.438 C 212.756 185.516,212.548 185.787,216.516 181.000 C 220.098 176.678,222.439 174.262,226.400 170.800 C 228.036 169.370,229.830 167.788,230.387 167.284 C 230.944 166.781,233.020 165.262,235.000 163.909 C 236.980 162.556,238.690 161.335,238.800 161.195 C 238.910 161.055,239.810 160.504,240.800 159.970 C 241.790 159.437,242.849 158.764,243.153 158.476 C 243.456 158.188,244.401 157.650,245.253 157.282 C 246.104 156.913,246.800 156.474,246.800 156.306 C 246.800 156.138,247.145 156.000,247.567 156.000 C 247.988 156.000,248.393 155.865,248.467 155.700 C 248.624 155.346,251.331 154.035,257.200 151.472 C 262.699 149.070,272.517 146.439,280.100 145.334 C 281.984 145.060,282.017 145.225,279.377 141.718 C 276.228 137.534,267.795 128.629,263.309 124.751 C 260.991 122.747,254.034 117.599,253.020 117.136 C 252.459 116.881,252.000 116.520,252.000 116.336 C 252.000 116.151,251.752 116.000,251.449 116.000 C 251.146 116.000,250.671 115.727,250.394 115.393 C 250.117 115.059,249.240 114.483,248.445 114.113 C 247.650 113.744,246.910 113.342,246.800 113.221 C 246.485 112.872,244.843 112.000,244.503 112.000 C 244.334 112.000,243.387 112.887,242.398 113.971 " stroke="none" fill="#fb4444" fill-rule="evenodd"></path><path id="path4" d="M68.669 113.609 C 27.789 138.516,6.016 187.186,14.186 235.400 C 14.522 237.380,14.969 239.720,15.181 240.600 C 15.392 241.480,15.862 243.460,16.225 245.000 C 18.255 253.603,23.079 265.569,27.917 274.000 C 30.020 277.666,36.204 286.718,37.207 287.600 C 37.332 287.710,38.297 288.880,39.350 290.200 C 47.306 300.164,60.456 310.937,74.400 318.913 C 87.517 326.416,106.045 333.136,122.400 336.323 C 128.209 337.455,128.535 337.507,137.800 338.777 C 148.792 340.282,168.516 340.178,180.800 338.548 C 192.827 336.953,197.875 335.940,209.400 332.806 C 214.329 331.466,226.163 327.162,226.914 326.435 C 227.087 326.268,225.673 324.617,223.771 322.766 C 215.412 314.628,207.958 304.310,202.845 293.800 C 201.468 290.970,200.999 289.936,199.578 286.600 C 193.813 273.074,191.169 253.149,192.996 237.000 C 193.705 230.738,193.691 231.096,193.200 231.400 C 192.980 231.536,192.800 232.771,192.800 234.144 C 192.800 235.517,192.614 236.826,192.388 237.052 C 191.584 237.856,192.313 263.846,193.194 265.800 C 193.392 266.240,193.655 267.365,193.777 268.300 C 194.283 272.160,194.502 273.216,194.842 273.426 C 195.039 273.548,195.200 274.029,195.200 274.495 C 195.200 274.962,195.375 275.896,195.589 276.572 C 195.802 277.247,196.367 279.060,196.843 280.600 C 198.735 286.716,203.110 296.665,205.196 299.594 C 205.638 300.215,206.000 300.843,206.000 300.990 C 206.000 301.136,206.540 302.041,207.200 303.000 C 207.860 303.959,208.400 304.937,208.400 305.172 C 208.400 305.407,208.550 305.600,208.732 305.600 C 208.915 305.600,209.320 306.095,209.632 306.700 C 209.944 307.305,210.298 307.890,210.419 308.000 C 210.540 308.110,211.077 308.830,211.614 309.600 C 212.729 311.202,212.801 311.295,215.648 314.800 C 218.005 317.702,221.144 321.081,224.301 324.117 L 226.402 326.137 225.101 326.712 C 223.778 327.296,222.441 327.854,221.000 328.423 C 219.526 329.004,213.833 330.851,210.400 331.862 C 206.843 332.910,205.509 333.261,202.200 334.020 C 201.100 334.272,199.480 334.652,198.600 334.864 C 177.476 339.957,149.269 340.570,126.400 336.434 C 125.190 336.215,123.570 335.931,122.800 335.802 C 122.030 335.673,120.770 335.406,120.000 335.209 C 119.230 335.012,117.700 334.648,116.600 334.400 C 111.296 333.205,99.411 329.706,96.100 328.365 C 95.605 328.164,94.750 327.820,94.200 327.600 C 91.753 326.621,90.955 326.284,90.305 325.953 C 89.923 325.759,89.338 325.600,89.005 325.600 C 88.672 325.600,88.400 325.420,88.400 325.200 C 88.400 324.980,88.149 324.800,87.843 324.800 C 87.352 324.800,85.857 324.062,78.000 319.944 C 77.010 319.425,76.140 318.865,76.067 318.700 C 75.993 318.535,75.761 318.400,75.550 318.400 C 75.339 318.400,74.780 318.040,74.308 317.600 C 73.836 317.160,73.213 316.800,72.925 316.800 C 72.636 316.800,72.400 316.659,72.400 316.486 C 72.400 316.314,71.867 315.857,71.215 315.472 C 70.563 315.087,69.798 314.553,69.515 314.286 C 69.232 314.019,68.370 313.325,67.600 312.745 C 66.118 311.629,65.499 311.113,62.022 308.092 C 58.449 304.988,51.008 297.416,48.675 294.511 C 47.477 293.020,46.100 291.350,45.613 290.800 C 45.127 290.250,44.437 289.305,44.079 288.700 C 43.720 288.095,43.286 287.600,43.114 287.600 C 42.941 287.600,42.800 287.330,42.800 287.000 C 42.800 286.670,42.650 286.400,42.468 286.400 C 42.285 286.400,41.880 285.905,41.568 285.300 C 41.255 284.695,40.685 283.851,40.300 283.425 C 39.915 282.998,39.600 282.413,39.600 282.125 C 39.600 281.836,39.420 281.600,39.200 281.600 C 38.980 281.600,38.800 281.426,38.800 281.213 C 38.800 281.001,38.098 279.741,37.240 278.414 C 35.236 275.313,30.867 266.377,29.215 262.000 C 28.509 260.130,27.767 258.287,27.566 257.905 C 27.365 257.523,27.200 256.859,27.200 256.429 C 27.200 255.999,27.020 255.536,26.800 255.400 C 26.580 255.264,26.400 254.724,26.400 254.200 C 26.400 253.676,26.220 253.136,26.000 253.000 C 25.780 252.864,25.600 252.234,25.600 251.600 C 25.600 250.966,25.420 250.336,25.200 250.200 C 24.980 250.064,24.800 249.434,24.800 248.800 C 24.800 248.166,24.620 247.536,24.400 247.400 C 24.180 247.264,24.000 246.544,24.000 245.800 C 24.000 245.056,23.820 244.336,23.600 244.200 C 23.380 244.064,23.200 243.254,23.200 242.400 C 23.200 241.546,23.020 240.736,22.800 240.600 C 22.580 240.464,22.400 239.589,22.400 238.656 C 22.400 237.723,22.235 236.789,22.034 236.580 C 21.832 236.371,21.562 235.030,21.434 233.600 C 21.306 232.170,20.991 228.660,20.734 225.800 C 19.776 215.131,20.347 203.618,22.400 192.200 C 22.637 190.880,22.933 189.080,23.057 188.200 C 23.181 187.320,23.444 186.429,23.641 186.220 C 23.838 186.011,24.000 185.257,24.000 184.544 C 24.000 183.831,24.180 183.136,24.400 183.000 C 24.620 182.864,24.800 182.223,24.800 181.576 C 24.800 180.929,24.980 180.400,25.200 180.400 C 25.420 180.400,25.600 179.781,25.600 179.024 C 25.600 178.267,25.780 177.536,26.000 177.400 C 26.220 177.264,26.400 176.724,26.400 176.200 C 26.400 175.676,26.580 175.136,26.800 175.000 C 27.020 174.864,27.200 174.349,27.200 173.856 C 27.200 173.363,27.344 172.789,27.519 172.580 C 27.695 172.371,28.169 171.210,28.573 170.000 C 29.887 166.060,35.173 154.373,35.990 153.600 C 36.106 153.490,36.465 152.860,36.788 152.200 C 37.111 151.540,37.876 150.248,38.488 149.328 C 39.099 148.408,39.600 147.463,39.600 147.228 C 39.600 146.993,39.780 146.800,40.000 146.800 C 40.220 146.800,40.400 146.564,40.400 146.275 C 40.400 145.987,40.760 145.364,41.200 144.892 C 41.640 144.420,42.000 143.880,42.000 143.692 C 42.000 143.504,42.315 142.998,42.700 142.566 C 43.085 142.134,44.018 140.885,44.773 139.791 C 49.313 133.208,60.829 121.316,67.943 115.863 C 73.030 111.964,72.733 112.038,74.931 114.115 C 77.530 116.569,79.513 117.466,85.200 118.759 C 86.190 118.984,88.890 119.613,91.200 120.157 C 97.095 121.546,102.457 122.751,103.400 122.899 C 103.987 122.991,104.171 123.288,104.093 124.012 C 104.034 124.556,103.800 127.250,103.572 130.000 C 103.345 132.750,103.002 136.890,102.810 139.200 C 102.618 141.510,102.268 146.010,102.031 149.200 C 101.795 152.390,101.561 155.270,101.511 155.600 C 100.904 159.616,104.599 165.370,109.109 167.433 C 111.357 168.461,117.276 168.847,117.800 168.000 C 117.936 167.780,118.316 167.600,118.646 167.600 C 119.280 167.600,124.107 164.483,124.333 163.928 C 124.407 163.747,124.688 163.600,124.958 163.600 C 125.228 163.600,125.798 163.276,126.225 162.881 C 126.651 162.485,128.170 161.373,129.600 160.411 C 131.030 159.448,132.290 158.557,132.400 158.430 C 132.510 158.304,132.897 158.020,133.259 157.800 C 133.622 157.580,134.702 156.849,135.659 156.175 C 136.617 155.502,139.200 153.710,141.400 152.193 C 143.600 150.677,145.490 149.324,145.600 149.188 C 145.710 149.051,146.970 148.156,148.400 147.198 C 149.830 146.239,151.060 145.308,151.133 145.128 C 151.207 144.947,151.507 144.800,151.800 144.800 C 152.093 144.800,152.393 144.653,152.467 144.472 C 152.540 144.292,153.770 143.359,155.200 142.400 C 156.630 141.441,157.860 140.508,157.933 140.328 C 158.108 139.898,159.200 139.902,159.200 140.332 C 159.200 140.515,159.695 140.920,160.300 141.232 C 160.905 141.544,161.490 141.903,161.600 142.029 C 161.710 142.156,162.880 143.009,164.200 143.923 C 169.746 147.767,173.425 150.358,173.800 150.682 C 174.020 150.873,176.810 152.813,180.000 154.994 C 183.190 157.175,185.860 159.104,185.933 159.280 C 186.007 159.456,186.307 159.600,186.600 159.600 C 186.893 159.600,187.193 159.747,187.267 159.928 C 187.340 160.108,188.570 161.039,190.000 161.998 C 191.430 162.956,192.690 163.855,192.800 163.996 C 193.233 164.552,196.702 166.702,198.496 167.528 C 206.679 171.293,216.894 163.643,215.833 154.543 C 215.491 151.606,214.914 144.525,214.486 137.989 C 214.305 135.232,214.049 132.802,213.918 132.589 C 213.169 131.370,213.416 123.008,214.205 122.881 C 215.925 122.602,232.019 118.855,235.400 117.945 C 238.610 117.081,240.243 116.156,242.303 114.034 C 244.426 111.848,245.402 111.672,246.800 113.220 C 246.910 113.342,247.650 113.744,248.445 114.113 C 249.240 114.483,250.117 115.059,250.394 115.393 C 250.671 115.727,251.146 116.000,251.449 116.000 C 251.752 116.000,252.000 116.151,252.000 116.336 C 252.000 116.520,252.459 116.881,253.020 117.136 C 256.859 118.885,269.813 130.342,276.077 137.529 C 277.661 139.345,281.600 144.629,281.600 144.936 C 281.600 145.081,281.015 145.203,280.300 145.206 C 279.585 145.209,278.730 145.403,278.400 145.636 C 277.955 145.951,278.299 146.013,279.735 145.876 C 282.848 145.578,282.826 145.295,279.348 140.757 C 272.561 131.902,261.984 122.170,252.113 115.699 C 246.122 111.771,244.051 110.832,243.517 111.800 C 242.099 114.371,238.796 116.479,234.664 117.452 C 233.309 117.771,231.570 118.200,230.800 118.405 C 230.030 118.610,227.060 119.327,224.200 119.997 C 217.494 121.570,212.665 122.801,212.480 122.987 C 212.400 123.067,212.520 124.813,212.747 126.866 C 212.975 128.920,213.358 133.030,213.598 136.000 C 213.838 138.970,214.219 143.307,214.445 145.639 C 215.578 157.357,214.992 161.062,211.462 164.487 C 206.962 168.855,200.877 169.020,195.148 164.931 C 194.276 164.309,192.153 162.810,190.430 161.600 C 188.707 160.390,184.891 157.703,181.949 155.629 C 179.007 153.555,174.890 150.680,172.800 149.239 C 170.710 147.798,168.730 146.398,168.400 146.127 C 166.610 144.659,159.060 139.601,158.664 139.604 C 158.409 139.606,156.400 140.877,154.200 142.428 C 152.000 143.979,148.670 146.310,146.800 147.608 C 144.930 148.906,141.288 151.460,138.708 153.284 C 131.593 158.312,124.621 163.206,121.878 165.098 C 116.158 169.044,110.744 168.839,105.934 164.492 C 102.194 161.114,101.775 157.755,103.182 142.400 C 103.393 140.090,103.746 135.950,103.965 133.200 C 104.184 130.450,104.485 127.007,104.635 125.549 L 104.907 122.897 103.553 122.484 C 102.809 122.257,99.770 121.507,96.800 120.817 C 91.728 119.639,85.602 118.198,83.800 117.758 C 80.437 116.939,78.525 116.260,77.451 115.506 C 76.086 114.547,73.624 111.980,73.609 111.500 C 73.588 110.827,72.408 111.331,68.669 113.609 M270.600 147.181 C 265.969 148.368,259.701 150.370,257.253 151.445 C 251.071 154.160,248.625 155.345,248.467 155.700 C 248.393 155.865,247.988 156.000,247.567 156.000 C 247.145 156.000,246.800 156.138,246.800 156.306 C 246.800 156.474,246.104 156.913,245.253 157.282 C 244.401 157.650,243.456 158.188,243.153 158.476 C 242.849 158.764,241.790 159.437,240.800 159.970 C 239.810 160.504,238.910 161.055,238.800 161.195 C 238.690 161.335,236.980 162.556,235.000 163.909 C 233.020 165.262,230.944 166.781,230.387 167.284 C 229.830 167.788,228.036 169.370,226.400 170.800 C 222.439 174.262,220.098 176.678,216.516 181.000 C 212.548 185.787,212.756 185.516,210.787 188.438 C 209.837 189.847,208.957 191.090,208.830 191.200 C 208.617 191.385,208.144 192.177,207.038 194.200 C 206.797 194.640,206.510 195.090,206.400 195.200 C 206.148 195.452,205.304 196.931,204.230 199.000 C 203.774 199.880,203.301 200.690,203.179 200.800 C 202.963 200.996,202.715 201.516,200.696 206.000 C 198.549 210.770,195.957 218.304,195.330 221.600 C 195.225 222.150,194.986 222.960,194.797 223.400 C 194.351 224.442,193.980 226.507,193.791 229.000 L 193.640 231.000 194.044 229.200 C 195.782 221.459,197.979 213.909,199.574 210.200 C 199.764 209.760,200.224 208.680,200.598 207.800 C 213.207 178.134,240.154 155.185,271.200 147.671 C 273.070 147.219,275.320 146.676,276.200 146.466 L 277.800 146.083 276.400 146.068 C 275.630 146.060,273.020 146.561,270.600 147.181 M293.891 157.089 C 294.601 157.177,295.861 157.179,296.691 157.092 C 297.521 157.005,296.940 156.933,295.400 156.931 C 293.860 156.929,293.181 157.000,293.891 157.089 M294.313 168.695 C 295.476 168.776,297.276 168.776,298.313 168.693 C 299.351 168.611,298.400 168.545,296.200 168.546 C 294.000 168.547,293.151 168.614,294.313 168.695 M358.600 182.000 C 359.459 182.880,360.252 183.600,360.362 183.600 C 360.472 183.600,359.859 182.880,359.000 182.000 C 358.141 181.120,357.348 180.400,357.238 180.400 C 357.128 180.400,357.741 181.120,358.600 182.000 M295.107 181.090 C 295.826 181.179,296.906 181.177,297.507 181.086 C 298.108 180.995,297.520 180.922,296.200 180.924 C 294.880 180.926,294.388 181.001,295.107 181.090 M361.600 184.925 C 361.600 184.994,362.185 185.579,362.900 186.225 L 364.200 187.400 363.025 186.100 C 361.930 184.888,361.600 184.616,361.600 184.925 M239.787 191.700 L 237.400 194.200 239.900 191.813 C 241.275 190.499,242.400 189.374,242.400 189.313 C 242.400 189.017,242.005 189.378,239.787 191.700 M247.600 201.400 C 246.628 202.390,245.923 203.200,246.033 203.200 C 246.143 203.200,247.028 202.390,248.000 201.400 C 248.972 200.410,249.677 199.600,249.567 199.600 C 249.457 199.600,248.572 200.410,247.600 201.400 M295.505 200.683 C 296.002 200.779,296.722 200.775,297.105 200.675 C 297.487 200.575,297.080 200.496,296.200 200.501 C 295.320 200.505,295.007 200.587,295.505 200.683 M228.893 242.000 C 228.893 242.770,228.975 243.085,229.076 242.700 C 229.176 242.315,229.176 241.685,229.076 241.300 C 228.975 240.915,228.893 241.230,228.893 242.000 M375.701 242.200 C 375.705 243.080,375.787 243.393,375.883 242.895 C 375.979 242.398,375.975 241.678,375.875 241.295 C 375.775 240.913,375.696 241.320,375.701 242.200 M387.293 242.400 C 387.293 243.170,387.375 243.485,387.476 243.100 C 387.576 242.715,387.576 242.085,387.476 241.700 C 387.375 241.315,387.293 241.630,387.293 242.400 M308.525 242.299 C 312.004 242.366,317.584 242.366,320.925 242.299 C 324.266 242.232,321.420 242.178,314.600 242.178 C 307.780 242.178,305.046 242.233,308.525 242.299 M363.293 244.000 C 363.293 244.770,363.375 245.085,363.476 244.700 C 363.576 244.315,363.576 243.685,363.476 243.300 C 363.375 242.915,363.293 243.230,363.293 244.000 M216.101 248.600 C 216.105 249.480,216.187 249.793,216.283 249.295 C 216.379 248.798,216.375 248.078,216.275 247.695 C 216.175 247.313,216.096 247.720,216.101 248.600 M363.301 253.000 C 363.305 253.880,363.387 254.193,363.483 253.695 C 363.579 253.198,363.575 252.478,363.475 252.095 C 363.375 251.713,363.296 252.120,363.301 253.000 M375.701 254.600 C 375.705 255.480,375.787 255.793,375.883 255.295 C 375.979 254.798,375.975 254.078,375.875 253.695 C 375.775 253.313,375.696 253.720,375.701 254.600 M387.293 254.400 C 387.293 255.170,387.375 255.485,387.476 255.100 C 387.576 254.715,387.576 254.085,387.476 253.700 C 387.375 253.315,387.293 253.630,387.293 254.400 M228.901 255.000 C 228.905 255.880,228.987 256.193,229.083 255.695 C 229.179 255.198,229.175 254.478,229.075 254.095 C 228.975 253.713,228.896 254.120,228.901 255.000 M248.200 296.000 C 249.506 297.320,250.665 298.400,250.775 298.400 C 250.885 298.400,249.906 297.320,248.600 296.000 C 247.294 294.680,246.135 293.600,246.025 293.600 C 245.915 293.600,246.894 294.680,248.200 296.000 M343.785 296.100 L 341.800 298.200 343.900 296.215 C 345.851 294.371,346.183 294.000,345.885 294.000 C 345.822 294.000,344.877 294.945,343.785 296.100 M236.000 301.325 C 236.000 301.394,236.585 301.979,237.300 302.625 L 238.600 303.800 237.425 302.500 C 236.330 301.288,236.000 301.016,236.000 301.325 M292.700 315.889 C 293.415 315.978,294.585 315.978,295.300 315.889 C 296.015 315.801,295.430 315.728,294.000 315.728 C 292.570 315.728,291.985 315.801,292.700 315.889 M297.700 315.887 C 298.305 315.978,299.295 315.978,299.900 315.887 C 300.505 315.795,300.010 315.720,298.800 315.720 C 297.590 315.720,297.095 315.795,297.700 315.887 M291.100 328.289 C 291.815 328.378,292.985 328.378,293.700 328.289 C 294.415 328.201,293.830 328.128,292.400 328.128 C 290.970 328.128,290.385 328.201,291.100 328.289 M298.300 328.289 C 299.015 328.378,300.185 328.378,300.900 328.289 C 301.615 328.201,301.030 328.128,299.600 328.128 C 298.170 328.128,297.585 328.201,298.300 328.289 M293.100 339.897 C 294.695 339.973,297.305 339.973,298.900 339.897 C 300.495 339.821,299.190 339.759,296.000 339.759 C 292.810 339.759,291.505 339.821,293.100 339.897 " stroke="none" fill="#d43b37" fill-rule="evenodd"></path></g></svg>